Coordinates
version=1
nRows=49
nColumns=12
inDegrees=yes

Units are S.I. units (second, meters, Newtons, ...)
Angles are in degrees

endheader
time	SC_y	SC_z	SC_x	AC_y	AC_z	AC_x	GH_y	GH_z	GH_yy	EL_x	PS_y
       0.0              -58.02        0.03648          50.23           68.3          -17.0           12.7         -76.36          48.82          -47.7          73.43          30.22
  0.005597              -58.02        0.03703          50.23          68.29          -17.0           12.7         -76.38          48.81         -47.67          73.43          30.23
   0.01119              -58.01        0.03762          50.23          68.29         -16.99           12.7         -76.39           48.8         -47.64          73.42          30.24
   0.01679               -58.0        0.03825          50.23          68.29         -16.99           12.7         -76.41          48.79          -47.6          73.42          30.25
   0.02239               -58.0        0.03892          50.23          68.28         -16.99           12.7         -76.43          48.79         -47.56          73.41          30.26
   0.02798              -57.99        0.03963          50.23          68.28         -16.99           12.7         -76.44          48.78         -47.52          73.41          30.27
   0.03358              -57.98        0.04039          50.23          68.27         -16.99           12.7         -76.46          48.77         -47.48           73.4          30.28
   0.03918              -57.97         0.0412          50.23          68.27         -16.99           12.7         -76.49          48.76         -47.43          73.39          30.29
   0.04477              -57.96        0.04207          50.22          68.26         -16.99           12.7         -76.51          48.75         -47.38          73.38           30.3
   0.05037              -57.95          0.043          50.22          68.26         -16.99          12.71         -76.53          48.73         -47.33          73.37          30.32
   0.05597              -57.93          0.044          50.22          68.25         -16.99          12.71         -76.56          48.72         -47.27          73.37          30.33
   0.06156              -57.92        0.04508          50.22          68.24         -16.98          12.71         -76.59          48.71         -47.21          73.36          30.35
   0.06716              -57.91        0.04624          50.22          68.24         -16.98          12.71         -76.62          48.69         -47.15          73.34          30.36
   0.07276              -57.89         0.0475          50.21          68.23         -16.98          12.71         -76.65          48.68         -47.07          73.33          30.38
   0.07835              -57.88        0.04886          50.21          68.22         -16.98          12.72         -76.69          48.66          -47.0          73.32           30.4
   0.08395              -57.86        0.05033          50.21          68.21         -16.98          12.72         -76.72          48.64         -46.91          73.31          30.42
   0.08954              -57.84        0.05193           50.2           68.2         -16.97          12.72         -76.77          48.62         -46.82          73.29          30.44
   0.09514              -57.82        0.05368           50.2          68.19         -16.97          12.72         -76.81           48.6         -46.72          73.28          30.47
    0.1007              -57.79        0.05558           50.2          68.18         -16.97          12.73         -76.86          48.58         -46.62          73.26           30.5
    0.1063              -57.77        0.05767          50.19          68.17         -16.97          12.73         -76.92          48.55          -46.5          73.24          30.53
    0.1119              -57.74        0.05996          50.19          68.15         -16.96          12.74         -76.98          48.52         -46.37          73.22          30.56
    0.1175              -57.71        0.06248          50.18          68.14         -16.96          12.74         -77.04          48.49         -46.23           73.2          30.59
    0.1231              -57.68        0.06527          50.18          68.12         -16.95          12.74         -77.12          48.45         -46.07          73.17          30.63
    0.1287              -57.64        0.06835          50.17           68.1         -16.95          12.75          -77.2          48.41         -45.89          73.14          30.68
    0.1343               -57.6        0.07178          50.17          68.08         -16.95          12.76         -77.29          48.37          -45.7          73.11          30.73
    0.1399              -57.55        0.07561          50.16          68.06         -16.94          12.76         -77.39          48.32         -45.48          73.08          30.78
    0.1455               -57.5        0.07989          50.15          68.03         -16.93          12.77          -77.5          48.27         -45.24          73.04          30.84
    0.1511              -57.44        0.08471          50.14           68.0         -16.93          12.78         -77.63          48.21         -44.96          72.99          30.91
    0.1567              -57.38        0.09016          50.13          67.97         -16.92          12.79         -77.77          48.14         -44.66          72.94          30.99
    0.1623               -57.3        0.09635          50.12          67.93         -16.91           12.8         -77.93          48.06          -44.3          72.89          31.08
    0.1679              -57.22         0.1034          50.11          67.88          -16.9          12.81         -78.11          47.97          -43.9          72.82          31.18
    0.1735              -57.12         0.1115          50.09          67.83         -16.89          12.82         -78.33          47.87         -43.44          72.75          31.29
    0.1791              -57.01         0.1209          50.07          67.78         -16.87          12.84         -78.57          47.75         -42.91          72.66          31.43
    0.1847              -56.87         0.1317          50.05          67.71         -16.86          12.86         -78.86          47.62          -42.3          72.56          31.58
    0.1903              -56.72         0.1445          50.03          67.63         -16.84          12.88         -79.19          47.46         -41.58          72.45          31.76
    0.1959              -56.54         0.1595           50.0          67.54         -16.82          12.91         -79.58          47.27         -40.72          72.31          31.98
    0.2015              -56.32         0.1773          49.96          67.43         -16.79          12.94         -80.05          47.04         -39.71          72.15          32.23
    0.2071              -56.07         0.1986          49.92          67.29         -16.76          12.97         -80.61          46.77          -38.5          71.95          32.54
    0.2127              -55.75         0.2245          49.87          67.13         -16.72          13.02         -81.29          46.45         -37.04          71.72           32.9
    0.2183              -55.37          0.256          49.81          66.94         -16.68          13.07         -82.11          46.05         -35.25          71.43          33.35
    0.2239               -54.9          0.295          49.74           66.7         -16.62          13.14         -83.13          45.56         -33.04          71.07          33.91
    0.2295              -54.31         0.3436          49.65           66.4         -16.55          13.22         -84.41          44.95         -30.28          70.63           34.6
    0.2351              -53.57         0.4048          49.53          66.02         -16.46          13.33         -86.01          44.18         -26.81          70.07          35.47
    0.2407              -52.63         0.4826          49.38          65.54         -16.35          13.46         -88.05          43.19          -22.4          69.36          36.58
    0.2462              -51.43         0.5822          49.19          64.92         -16.21          13.63         -90.66          41.94         -16.75          68.45           38.0
    0.2518              -49.89           0.71          48.94          64.13         -16.02          13.85          -94.0          40.33         -9.499          67.28          39.82
    0.2574              -47.91         0.8732          48.63          63.12         -15.79          14.13         -98.28          38.27        -0.2396          65.79          42.15
     0.263              -45.43          1.078          48.24          61.85         -15.49          14.48         -103.7          35.69           11.4          63.91          45.08
    0.2686              -42.41          1.329          47.76           60.3         -15.13          14.91         -110.2          32.54          25.59          61.63          48.64
